# This file uses centimeters as units for non-parametric coordinates.

mtllib tent.mtl
v -0.538490 0.002145 1.005482
v 0.000000 0.002145 1.005482
v 0.538490 0.002145 1.005482
v -0.662312 0.205931 1.005482
v 0.000000 0.205931 0.994532
v 0.662312 0.205931 1.005482
v -0.428476 0.502145 1.005482
v 0.000000 0.502145 0.994532
v 0.428476 0.502145 1.005482
v -0.212318 0.752145 1.005482
v 0.000000 0.880653 1.005482
v 0.212318 0.752145 1.005482
v 0.000000 1.002145 1.005482
v 0.000000 0.975744 0.335161
v 0.000000 0.975744 -0.335161
v 0.000000 1.002145 -1.005482
v -0.212318 0.752145 -1.005482
v 0.000000 0.880653 -1.005482
v 0.212318 0.752145 -1.005482
v -0.428476 0.502145 -1.005482
v 0.000000 0.502145 -0.994532
v 0.428476 0.502145 -1.005482
v -0.662312 0.205931 -1.005482
v 0.000000 0.205931 -0.994532
v 0.662312 0.205931 -1.005482
v -0.538490 0.002145 -1.005482
v 0.000000 0.002145 -1.005482
v 0.538490 0.002145 -1.005482
v -0.516286 0.002145 -0.335161
v 0.000000 0.002145 -0.335161
v 0.516286 0.002145 -0.335161
v -0.516286 0.002145 0.335161
v 0.000000 0.002145 0.335161
v 0.516286 0.002145 0.335161
v 0.662312 0.179530 -0.335161
v 0.662312 0.179530 0.335161
v 0.417337 0.443216 -0.335161
v 0.417337 0.443216 0.335161
v 0.206798 0.693216 -0.335161
v 0.206798 0.693216 0.335161
v -0.662312 0.179530 -0.335161
v -0.662312 0.179530 0.335161
v -0.417337 0.443216 -0.335161
v -0.417337 0.443216 0.335161
v -0.206798 0.693216 -0.335161
v -0.206798 0.693216 0.335161
v 0.825600 0.054230 -1.005482
v 0.825683 0.029785 -0.335161
v 0.825683 0.029785 0.335161
v 0.825600 0.054230 1.005482
v -0.825600 0.054230 -1.005482
v -0.825683 0.029785 -0.335161
v -0.825683 0.029785 0.335161
v -0.825600 0.054230 1.005482
v -0.662312 0.205931 1.050411
v -0.428476 0.502145 1.050411
v 0.662312 0.205931 1.050411
v 0.428476 0.502145 1.050411
v -0.212318 0.752145 1.050411
v 0.212318 0.752145 1.050411
v 0.000000 1.022897 1.094934
v 0.000000 1.022897 -1.094934
v -0.212318 0.752145 -1.050411
v 0.212318 0.752145 -1.050411
v -0.428476 0.502145 -1.050411
v 0.428476 0.502145 -1.050411
v -0.662312 0.205931 -1.050411
v 0.662312 0.205931 -1.050411
v 0.828312 0.045577 -1.050411
v 0.828312 0.045577 1.050411
v -0.828312 0.045577 -1.050411
v -0.828312 0.045577 1.050411
v 0.015797 0.502145 0.994532
v 0.018319 0.205931 0.994532
v 0.008555 0.002145 1.005482
v 0.019034 0.002145 0.335161
v 0.019034 0.002145 -0.335161
v 0.008555 0.002145 -1.005482
v 0.018319 0.205931 -0.994532
v 0.015797 0.502145 -0.994532
v -0.015517 0.502145 0.994532
v -0.017887 0.205931 0.994532
v -0.008204 0.002145 1.005482
v -0.018697 0.002145 0.335161
v -0.018697 0.002145 -0.335161
v -0.008204 0.002145 -1.005482
v -0.017887 0.205931 -0.994532
v -0.015517 0.502145 -0.994532
vt 0.375000 0.000000
vt 0.500000 0.000000
vt 0.625000 0.000000
vt 0.375000 0.062500
vt 0.500000 0.062500
vt 0.625000 0.062500
vt 0.375000 0.125000
vt 0.500000 0.125000
vt 0.625000 0.125000
vt 0.375000 0.187500
vt 0.495161 0.189747
vt 0.625000 0.187500
vt 0.489313 0.260304
vt 0.500006 0.500004
vt 0.375000 0.562500
vt 0.497497 0.562505
vt 0.625000 0.562500
vt 0.375000 0.625000
vt 0.500000 0.625000
vt 0.625000 0.625000
vt 0.375000 0.687500
vt 0.500000 0.687500
vt 0.625000 0.687500
vt 0.375000 0.750000
vt 0.500000 0.750000
vt 0.625000 0.750000
vt 0.375000 0.833333
vt 0.500000 0.833333
vt 0.625000 0.833333
vt 0.375000 0.916667
vt 0.500000 0.916667
vt 0.625000 0.916667
vt 0.375000 1.000000
vt 0.500000 1.000000
vt 0.625000 1.000000
vt 0.875000 0.000000
vt 0.791667 0.000000
vt 0.708333 0.000000
vt 0.875000 0.062500
vt 0.791667 0.062500
vt 0.708333 0.062500
vt 0.875000 0.125000
vt 0.791667 0.125000
vt 0.708333 0.125000
vt 0.875000 0.187500
vt 0.791667 0.187500
vt 0.708333 0.187500
vt 0.739432 0.260404
vt 0.656086 0.260317
vt 0.572699 0.260311
vt 0.125000 0.000000
vt 0.208333 0.000000
vt 0.291667 0.000000
vt 0.125000 0.062500
vt 0.208333 0.062500
vt 0.291667 0.062500
vt 0.125000 0.125000
vt 0.208333 0.125000
vt 0.291667 0.125000
vt 0.125000 0.187500
vt 0.208333 0.187500
vt 0.291667 0.187500
vt 0.126856 0.250103
vt 0.215489 0.250601
vt 0.320236 0.252549
vt 0.000000 0.000000
vt 1.000000 0.000000
vt 1.000000 1.000000
vt 0.000000 1.000000
vt 0.000000 0.000000
vt 1.000000 0.000000
vt 1.000000 1.000000
vt 0.000000 1.000000
vt 0.000000 0.000000
vt 1.000000 0.000000
vt 1.000000 1.000000
vt 0.000000 1.000000
vt 0.000000 0.000000
vt 1.000000 0.000000
vt 1.000000 1.000000
vt 0.000000 1.000000
vt 0.000000 0.000000
vt 1.000000 0.000000
vt 1.000000 1.000000
vt 0.000000 1.000000
vt 0.000000 0.000000
vt 1.000000 0.000000
vt 1.000000 1.000000
vt 0.000000 1.000000
vt 0.000000 0.000000
vt 1.000000 0.000000
vt 1.000000 1.000000
vt 0.000000 1.000000
vt 0.000000 0.000000
vt 1.000000 0.000000
vt 1.000000 1.000000
vt 0.000000 1.000000
vt 0.000000 0.000000
vt 1.000000 0.000000
vt 1.000000 1.000000
vt 0.000000 1.000000
vt 0.000000 0.000000
vt 1.000000 0.000000
vt 1.000000 1.000000
vt 0.000000 1.000000
vt 0.000000 0.000000
vt 1.000000 0.000000
vt 1.000000 1.000000
vt 0.000000 1.000000
vt 0.000000 0.000000
vt 1.000000 0.000000
vt 1.000000 1.000000
vt 0.000000 1.000000
vt 0.000000 0.000000
vt 1.000000 0.000000
vt 1.000000 1.000000
vt 0.000000 1.000000
vt 0.000000 0.000000
vt 1.000000 0.000000
vt 1.000000 1.000000
vt 0.000000 1.000000
vt 0.000000 0.000000
vt 1.000000 0.000000
vt 1.000000 1.000000
vt 0.000000 1.000000
vt 0.000000 0.000000
vt 1.000000 0.000000
vt 1.000000 1.000000
vt 0.000000 1.000000
vt 0.000000 0.000000
vt 1.000000 0.000000
vt 1.000000 1.000000
vt 0.000000 1.000000
vt 0.000000 0.000000
vt 1.000000 0.000000
vt 1.000000 1.000000
vt 0.000000 1.000000
vt 0.000000 0.000000
vt 1.000000 0.000000
vt 1.000000 1.000000
vt 0.000000 1.000000
vt 0.000000 0.000000
vt 1.000000 0.000000
vt 1.000000 1.000000
vt 0.000000 1.000000
vt 0.000000 0.000000
vt 1.000000 0.000000
vt 1.000000 1.000000
vt 0.000000 1.000000
vt 0.000000 0.000000
vt 1.000000 0.000000
vt 1.000000 1.000000
vt 0.000000 1.000000
vt 0.504608 0.125000
vt 0.504608 0.062500
vt 0.504608 0.000000
vt 0.504608 1.000000
vt 0.504608 0.916667
vt 0.504608 0.833333
vt 0.504608 0.750000
vt 0.504608 0.687500
vt 0.504608 0.625000
vt 0.495473 0.125000
vt 0.495473 0.062500
vt 0.495473 0.000000
vt 0.495473 1.000000
vt 0.495473 0.916667
vt 0.495473 0.833333
vt 0.495473 0.750000
vt 0.495473 0.687500
vt 0.495473 0.625000
vn 0.013782 0.014183 0.999804
vn 0.000000 0.053653 0.998560
vn 0.000000 0.021724 0.999764
vn 0.000000 0.053653 0.998560
vn 0.000000 0.053653 0.998560
vn -0.014224 0.017409 0.999747
vn -0.013781 0.014178 0.999805
vn -0.017000 -0.003050 0.999851
vn 0.024041 -0.011427 0.999646
vn 0.000000 -0.016186 0.999869
vn -0.024036 -0.011449 0.999645
vn -0.020526 -0.013016 0.999705
vn 0.000003 -0.017062 0.999854
vn -0.021783 -0.025248 0.999444
vn 0.021773 -0.025232 0.999444
vn -0.000001 0.000000 1.000000
vn -0.000001 0.000000 -1.000000
vn 0.000004 -0.017062 -0.999854
vn 0.021773 -0.025232 -0.999444
vn -0.021783 -0.025248 -0.999444
vn 0.024038 -0.011426 -0.999646
vn 0.000000 -0.016226 -0.999868
vn -0.024033 -0.011448 -0.999646
vn -0.020526 -0.013016 -0.999705
vn 0.013780 0.014182 -0.999804
vn 0.000000 0.021778 -0.999763
vn -0.013780 0.014177 -0.999804
vn -0.017000 -0.003050 -0.999851
vn 0.000000 0.053653 -0.998560
vn 0.000000 0.053653 -0.998560
vn 0.000000 0.053653 -0.998560
vn -0.014224 0.017409 -0.999747
vn 0.000000 -1.000000 0.000000
vn 0.000000 -1.000000 -0.000000
vn 0.000000 -1.000000 -0.000000
vn 0.000000 -1.000000 0.000000
vn 0.000000 -1.000000 0.000000
vn 0.000000 -1.000000 0.000000
vn 0.000000 -1.000000 0.000000
vn 0.000000 -1.000000 -0.000000
vn 0.000000 -1.000000 0.000000
vn 0.000000 -1.000000 0.000000
vn 0.000000 -1.000000 -0.000000
vn 0.000000 -1.000000 -0.000000
vn 0.000000 -1.000000 0.000000
vn 0.000000 -1.000000 0.000000
vn 0.000000 -1.000000 -0.000000
vn 0.000000 -1.000000 0.000000
vn 0.771987 -0.635513 0.012632
vn 0.826417 -0.563047 -0.003659
vn 0.790104 -0.612961 0.003819
vn 0.854432 -0.519160 -0.020448
vn 0.771987 -0.635513 -0.012632
vn 0.790104 -0.612961 -0.003819
vn 0.826417 -0.563047 0.003659
vn 0.854432 -0.519160 0.020448
vn 0.732559 0.680577 0.013142
vn 0.758576 0.649874 0.047182
vn 0.755382 0.654638 0.029097
vn 0.771020 0.633297 0.066816
vn 0.732559 0.680577 -0.013142
vn 0.755382 0.654638 -0.029097
vn 0.758576 0.649874 -0.047182
vn 0.771019 0.633297 -0.066816
vn 0.784768 0.618996 0.031369
vn 0.771784 0.633739 0.052197
vn 0.784768 0.618996 -0.031369
vn 0.771784 0.633739 -0.052197
vn 0.796640 0.604065 0.021703
vn 0.761966 0.647115 0.025487
vn 0.796640 0.604065 -0.021703
vn 0.761966 0.647115 -0.025487
vn -0.771987 -0.635513 0.012632
vn -0.790104 -0.612961 0.003819
vn -0.826417 -0.563047 -0.003659
vn -0.854432 -0.519160 -0.020448
vn -0.771987 -0.635513 -0.012632
vn -0.790104 -0.612961 -0.003819
vn -0.826417 -0.563047 0.003659
vn -0.854432 -0.519160 0.020448
vn -0.732559 0.680577 0.013142
vn -0.755382 0.654638 0.029097
vn -0.758576 0.649874 0.047182
vn -0.771020 0.633297 0.066816
vn -0.732559 0.680577 -0.013142
vn -0.755382 0.654638 -0.029097
vn -0.758576 0.649874 -0.047182
vn -0.771019 0.633297 -0.066816
vn -0.784768 0.618996 0.031369
vn -0.771784 0.633739 0.052197
vn -0.784768 0.618996 -0.031369
vn -0.771784 0.633739 -0.052197
vn -0.796640 0.604065 0.021703
vn -0.761966 0.647115 0.025487
vn -0.796640 0.604065 -0.021703
vn -0.761966 0.647115 -0.025487
vn 0.680353 0.732316 0.028843
vn 0.676543 0.736270 0.014024
vn 0.678606 0.733965 0.028109
vn 0.675638 0.737116 0.013175
vn 0.676543 0.736270 -0.014024
vn 0.675638 0.737116 -0.013175
vn 0.680354 0.732316 -0.028843
vn 0.678606 0.733965 -0.028109
vn -0.680354 0.732316 0.028843
vn -0.678606 0.733965 0.028109
vn -0.676543 0.736270 0.014024
vn -0.675638 0.737116 0.013175
vn -0.676543 0.736270 -0.014024
vn -0.675638 0.737116 -0.013175
vn -0.678606 0.733965 -0.028109
vn -0.680354 0.732316 -0.028843
vn -0.784904 0.619617 0.000000
vn -0.784904 0.619617 0.000000
vn -0.784905 0.619616 0.000000
vn -0.784905 0.619616 0.000000
vn 0.784904 0.619617 0.000000
vn 0.784905 0.619616 0.000000
vn 0.784904 0.619617 0.000000
vn 0.784905 0.619616 0.000000
vn -0.756450 0.654052 0.000000
vn -0.756450 0.654052 0.000000
vn -0.756451 0.654050 0.000000
vn -0.756451 0.654050 0.000000
vn 0.756450 0.654052 0.000000
vn 0.756451 0.654050 0.000000
vn 0.756450 0.654052 0.000000
vn 0.756451 0.654050 0.000000
vn -0.762213 0.647327 0.000000
vn -0.764091 0.644676 -0.023619
vn -0.766926 0.625729 -0.142437
vn -0.766863 0.625208 -0.145037
vn 0.762213 0.647327 0.000000
vn 0.766926 0.625729 -0.142437
vn 0.764091 0.644676 -0.023619
vn 0.766863 0.625208 -0.145037
vn -0.766863 0.625208 0.145037
vn -0.764091 0.644676 0.023619
vn -0.766926 0.625729 0.142437
vn -0.762213 0.647327 0.000000
vn 0.762213 0.647327 0.000000
vn 0.764091 0.644676 0.023619
vn 0.766926 0.625729 0.142437
vn 0.766863 0.625208 0.145037
vn -0.756450 0.654052 0.000000
vn -0.756450 0.654052 0.000000
vn -0.756451 0.654050 0.000000
vn -0.756451 0.654050 0.000000
vn 0.756450 0.654052 0.000000
vn 0.756451 0.654050 0.000000
vn 0.756450 0.654052 0.000000
vn 0.756451 0.654050 0.000000
vn -0.784904 0.619617 0.000000
vn -0.784904 0.619617 0.000000
vn -0.784905 0.619616 0.000000
vn -0.784905 0.619616 0.000000
vn 0.784904 0.619617 0.000000
vn 0.784905 0.619616 0.000000
vn 0.784904 0.619617 0.000000
vn 0.784905 0.619616 0.000000
vn 0.680636 0.732622 0.000000
vn 0.691146 0.716949 -0.091106
vn 0.681610 0.731685 -0.006699
vn 0.691553 0.715901 -0.096125
vn 0.680636 0.732622 0.000000
vn 0.681610 0.731685 0.006699
vn 0.691147 0.716949 0.091106
vn 0.691554 0.715901 0.096124
vn -0.680636 0.732622 0.000000
vn -0.681610 0.731685 -0.006699
vn -0.691147 0.716949 -0.091106
vn -0.691554 0.715901 -0.096124
vn -0.691554 0.715901 0.096124
vn -0.681610 0.731685 0.006699
vn -0.691147 0.716949 0.091106
vn -0.680636 0.732622 0.000000
vn 0.020511 -0.013007 0.999705
vn 0.016988 -0.003048 0.999851
vn 0.014217 0.017398 0.999748
vn 0.000000 -1.000000 0.000000
vn 0.000000 -1.000000 0.000000
vn 0.000000 -1.000000 -0.000000
vn 0.000000 -1.000000 -0.000000
vn 0.016988 -0.003048 -0.999851
vn 0.014217 0.017398 -0.999748
vn 0.020511 -0.013007 -0.999705
usemtl phong3SG
f 82/164/1 83/165/2 5/5/3
f 5/5/3 83/165/2 2/2/4
usemtl phong2SG
f 75/156/5 3/3/6 74/155/7
f 74/155/7 3/3/6 6/6/8
usemtl phong3SG
f 81/163/9 82/164/1 8/8/10
f 8/8/10 82/164/1 5/5/3
usemtl phong2SG
f 73/154/11 74/155/7 9/9/12
f 9/9/12 74/155/7 6/6/8
usemtl phong3SG
f 11/11/13 81/163/9 8/8/10
usemtl phong2SG
f 11/11/13 73/154/11 12/12/14
f 12/12/14 73/154/11 9/9/12
f 10/10/15 11/11/13 13/13/16
f 11/11/13 12/12/14 13/13/16
f 16/14/17 18/16/18 17/15/19
f 16/14/17 19/17/20 18/16/18
usemtl phong3SG
f 88/171/21 18/16/18 21/19/22
usemtl phong2SG
f 18/16/18 19/17/20 80/162/23
f 80/162/23 19/17/20 22/20/24
usemtl phong3SG
f 87/170/25 88/171/21 24/22/26
f 24/22/26 88/171/21 21/19/22
usemtl phong2SG
f 80/162/23 22/20/24 79/161/27
f 79/161/27 22/20/24 25/23/28
usemtl phong3SG
f 87/170/25 24/22/26 86/169/29
f 86/169/29 24/22/26 27/25/30
usemtl phong2SG
f 78/160/31 79/161/27 28/26/32
f 28/26/32 79/161/27 25/23/28
f 85/168/33 86/169/34 30/28/35
f 30/28/35 86/169/34 27/25/36
f 77/159/37 78/160/38 31/29/39
f 31/29/39 78/160/38 28/26/40
f 84/167/41 85/168/33 33/31/42
f 33/31/42 85/168/33 30/28/35
f 76/158/43 77/159/37 34/32/44
f 34/32/44 77/159/37 31/29/39
f 84/167/41 33/31/42 83/166/45
f 83/166/45 33/31/42 2/34/46
f 76/158/43 34/32/44 75/157/47
f 75/157/47 34/32/44 3/35/48
f 31/37/49 28/36/50 35/40/51
f 35/40/51 28/36/50 25/39/52
f 34/38/53 31/37/49 36/41/54
f 36/41/54 31/37/49 35/40/51
f 34/38/53 36/41/54 3/3/55
f 3/3/55 36/41/54 6/6/56
f 35/40/57 25/39/58 37/43/59
f 37/43/59 25/39/58 22/42/60
f 36/41/61 35/40/57 38/44/62
f 38/44/62 35/40/57 37/43/59
f 36/41/61 38/44/62 6/6/63
f 6/6/63 38/44/62 9/9/64
f 37/43/59 22/42/60 39/46/65
f 39/46/65 22/42/60 19/45/66
f 38/44/62 37/43/59 40/47/67
f 40/47/67 37/43/59 39/46/65
f 38/44/62 40/47/67 9/9/64
f 9/9/64 40/47/67 12/12/68
f 39/46/65 19/45/66 15/49/69
f 15/49/69 19/45/66 16/48/70
f 40/47/67 39/46/65 14/50/71
f 14/50/71 39/46/65 15/49/69
f 40/47/67 14/50/71 12/12/68
f 12/12/68 14/50/71 13/13/72
f 29/52/73 41/55/74 26/51/75
f 26/51/75 41/55/74 23/54/76
f 29/52/73 32/53/77 41/55/74
f 41/55/74 32/53/77 42/56/78
f 32/53/77 1/1/79 42/56/78
f 42/56/78 1/1/79 4/4/80
f 41/55/81 43/58/82 23/54/83
f 23/54/83 43/58/82 20/57/84
f 41/55/81 42/56/85 43/58/82
f 43/58/82 42/56/85 44/59/86
f 42/56/85 4/4/87 44/59/86
f 44/59/86 4/4/87 7/7/88
f 43/58/82 45/61/89 20/57/84
f 20/57/84 45/61/89 17/60/90
f 43/58/82 44/59/86 45/61/89
f 45/61/89 44/59/86 46/62/91
f 44/59/86 7/7/88 46/62/91
f 46/62/91 7/7/88 10/10/92
f 45/61/89 15/64/93 17/60/90
f 17/60/90 15/64/93 16/63/94
f 45/61/89 46/62/91 15/64/93
f 15/64/93 46/62/91 14/65/95
f 46/62/91 10/10/92 14/65/95
f 14/65/95 10/10/92 13/13/96
f 25/66/97 35/67/98 47/69/99
f 47/69/99 35/67/98 48/68/100
f 35/70/98 36/71/101 48/73/100
f 48/73/100 36/71/101 49/72/102
f 6/75/103 50/76/104 36/74/101
f 36/74/101 50/76/104 49/77/102
f 23/78/105 51/81/106 41/79/107
f 41/79/107 51/81/106 52/80/108
f 41/82/107 52/85/108 42/83/109
f 42/83/109 52/85/108 53/84/110
f 53/89/110 54/88/111 42/86/109
f 42/86/109 54/88/111 4/87/112
f 4/90/113 55/93/114 7/91/115
f 7/91/115 55/93/114 56/92/116
f 6/94/117 9/95/118 57/97/119
f 57/97/119 9/95/118 58/96/120
f 7/98/121 56/101/122 10/99/123
f 10/99/123 56/101/122 59/100/124
f 9/102/125 12/103/126 58/105/127
f 58/105/127 12/103/126 60/104/128
f 10/106/129 59/109/130 13/107/131
f 13/107/131 59/109/130 61/108/132
f 12/110/133 13/111/134 60/113/135
f 60/113/135 13/111/134 61/112/136
f 62/117/137 63/116/138 16/114/139
f 16/114/139 63/116/138 17/115/140
f 19/119/141 64/120/142 16/118/143
f 16/118/143 64/120/142 62/121/144
f 17/122/145 63/125/146 20/123/147
f 20/123/147 63/125/146 65/124/148
f 19/126/149 22/127/150 64/129/151
f 64/129/151 22/127/150 66/128/152
f 20/130/153 65/133/154 23/131/155
f 23/131/155 65/133/154 67/132/156
f 22/134/157 25/135/158 66/137/159
f 66/137/159 25/135/158 68/136/160
f 25/138/161 47/139/162 68/141/163
f 68/141/163 47/139/162 69/140/164
f 6/143/165 57/144/166 50/142/167
f 50/142/167 57/144/166 70/145/168
f 23/146/169 67/149/170 51/147/171
f 51/147/171 67/149/170 71/148/172
f 72/153/173 55/152/174 54/150/175
f 54/150/175 55/152/174 4/151/176
usemtl phong3SG
f 8/8/10 73/154/11 11/11/13
f 5/5/3 74/155/7 8/8/10
f 8/8/10 74/155/7 73/154/11
f 2/2/4 75/156/5 5/5/3
f 5/5/3 75/156/5 74/155/7
usemtl phong2SG
f 76/158/43 75/157/47 33/31/42
f 33/31/42 75/157/47 2/34/46
f 30/28/35 77/159/37 33/31/42
f 33/31/42 77/159/37 76/158/43
f 27/25/36 78/160/38 30/28/35
f 30/28/35 78/160/38 77/159/37
usemtl phong3SG
f 79/161/27 78/160/31 24/22/26
f 24/22/26 78/160/31 27/25/30
f 21/19/22 80/162/23 24/22/26
f 24/22/26 80/162/23 79/161/27
f 18/16/18 80/162/23 21/19/22
usemtl phong2SG
f 7/7/177 81/163/9 10/10/15
f 10/10/15 81/163/9 11/11/13
f 4/4/178 82/164/1 7/7/177
f 7/7/177 82/164/1 81/163/9
f 83/165/2 82/164/1 1/1/179
f 1/1/179 82/164/1 4/4/178
f 84/167/41 83/166/45 32/30/180
f 32/30/180 83/166/45 1/33/181
f 29/27/182 85/168/33 32/30/180
f 32/30/180 85/168/33 84/167/41
f 26/24/183 86/169/34 29/27/182
f 29/27/182 86/169/34 85/168/33
f 23/21/184 87/170/25 26/24/185
f 26/24/185 87/170/25 86/169/29
f 88/171/21 87/170/25 20/18/186
f 20/18/186 87/170/25 23/21/184
f 18/16/18 88/171/21 17/15/19
f 17/15/19 88/171/21 20/18/186
