# This file uses centimeters as units for non-parametric coordinates.

mtllib stone.mtl
v 0.934172 -0.194172 -0.000000
v 0.934172 0.194172 0.000000
v 0.356822 -0.000000 -0.804667
v 0.577350 0.227637 -0.750695
v 0.577350 -0.314177 -0.497311
v 0.356822 -0.000000 0.804667
v 0.577350 -0.314177 0.497311
v 0.577350 0.314177 0.497311
v -0.934172 -0.194172 -0.000000
v -0.819334 0.194172 0.000000
v -0.356822 0.160773 0.804667
v -0.577350 -0.314177 0.497311
v -0.577350 0.314177 0.151668
v -0.356822 -0.000000 -0.804667
v -0.577350 0.314177 -0.497311
v -0.577350 -0.314177 -0.497311
v 0.000000 -0.508348 0.307355
v 0.121422 0.399405 0.500274
v -0.102871 0.437271 -0.307355
v 0.000000 -0.508348 -0.307355
vt 0.099106 0.250000
vt 0.221609 0.250000
vt 0.259464 0.368034
vt 0.160357 0.440983
vt 0.061251 0.368034
vt 0.037855 0.440983
vt 0.198213 0.559017
vt 0.099106 0.631966
vt 0.000000 0.559017
vt 0.320715 0.559017
vt 0.358570 0.677051
vt 0.259464 0.750000
vt 0.160357 0.677051
vt 0.358570 0.440983
vt 0.481072 0.440983
vt 0.518928 0.559017
vt 0.419821 0.631966
vt 0.297319 0.250000
vt 0.419821 0.250000
vt 0.457677 0.368034
vt 0.740536 0.250000
vt 0.839643 0.322949
vt 0.801787 0.440983
vt 0.679285 0.440983
vt 0.641430 0.322949
vt 0.580179 0.368034
vt 0.641430 0.559017
vt 0.740536 0.631966
vt 0.702681 0.750000
vt 0.580179 0.750000
vt 0.542323 0.631966
vt 0.839643 0.559017
vt 0.938749 0.631966
vt 0.900894 0.750000
vt 0.778391 0.750000
vt 0.900894 0.368034
vt 1.000000 0.440983
vt 0.962145 0.559017
vn 0.778102 -0.628138 0.000000
vn 0.482679 -0.706975 -0.516921
vn 0.763954 0.645173 -0.011247
vn 0.383483 -0.385382 -0.839298
vn 0.382669 0.797481 -0.466464
vn 0.423303 -0.717582 0.553074
vn 0.316258 -0.187807 0.929898
vn 0.411973 0.858366 0.305754
vn 0.040678 -0.964247 -0.261866
vn 0.000000 -0.983571 0.180522
vn -0.443398 0.282749 0.850559
vn -0.464163 -0.724224 0.509953
vn -0.881575 -0.472043 0.001085
vn -0.362418 -0.793197 -0.489379
vn -0.396298 0.032718 -0.917539
vn 0.056269 0.990046 -0.129008
vn -0.463317 0.698545 -0.545318
vn -0.007930 0.965932 0.258673
vn -0.315188 0.933448 0.171261
vn -0.884316 0.435101 0.169327
usemtl initialShadingGroup
f 1/7/1 5/8/2 2/4/3
f 5/8/2 3/9/4 2/4/3
f 3/9/4 4/6/5 2/4/3
f 1/7/1 2/4/3 7/10/6
f 7/10/6 2/4/3 6/14/7
f 8/3/8 6/14/7 2/4/3
f 5/13/2 1/7/1 20/12/9
f 20/12/9 1/7/1 17/11/10
f 1/7/1 7/10/6 17/11/10
f 11/15/11 12/16/12 6/14/7
f 6/14/7 12/16/12 7/10/6
f 12/16/12 17/17/10 7/10/6
f 9/27/13 16/28/14 12/31/12
f 12/31/12 16/28/14 17/30/10
f 17/30/10 16/28/14 20/29/9
f 5/34/2 20/35/9 3/33/4
f 20/35/9 16/28/14 3/33/4
f 16/28/14 14/32/15 3/33/4
f 19/36/16 4/37/5 15/23/17
f 15/23/17 4/37/5 14/32/15
f 3/38/4 14/32/15 4/37/5
f 18/2/18 8/3/8 19/1/16
f 19/1/16 8/3/8 4/5/5
f 2/4/3 4/5/5 8/3/8
f 13/19/19 11/20/11 18/18/18
f 6/14/7 8/3/8 11/20/11
f 8/3/8 18/18/18 11/20/11
f 13/26/19 10/24/20 11/15/11
f 11/15/11 10/24/20 12/16/12
f 9/27/13 12/16/12 10/24/20
f 18/21/18 19/22/16 13/25/19
f 19/22/16 15/23/17 13/25/19
f 10/24/20 13/25/19 15/23/17
f 16/28/14 9/27/13 14/32/15
f 14/32/15 9/27/13 15/23/17
f 10/24/20 15/23/17 9/27/13
v 0.934172 -0.194172 -0.000000
v 0.934172 0.194172 0.000000
v 0.356822 -0.000000 -0.804667
v 0.577350 0.227637 -0.750695
v 0.577350 -0.314177 -0.497311
v 0.356822 -0.000000 0.804667
v 0.577350 -0.314177 0.497311
v 0.577350 0.314177 0.497311
v -0.934172 -0.194172 -0.000000
v -0.819334 0.194172 0.000000
v -0.356822 0.160773 0.804667
v -0.577350 -0.314177 0.497311
v -0.577350 0.314177 0.151668
v -0.356822 -0.000000 -0.804667
v -0.577350 0.314177 -0.497311
v -0.577350 -0.314177 -0.497311
v 0.000000 -0.508348 0.307355
v 0.121422 0.399405 0.500274
v -0.102871 0.437271 -0.307355
v 0.000000 -0.508348 -0.307355
vt 0.099106 0.250000
vt 0.221609 0.250000
vt 0.259464 0.368034
vt 0.160357 0.440983
vt 0.061251 0.368034
vt 0.037855 0.440983
vt 0.198213 0.559017
vt 0.099106 0.631966
vt 0.000000 0.559017
vt 0.320715 0.559017
vt 0.358570 0.677051
vt 0.259464 0.750000
vt 0.160357 0.677051
vt 0.358570 0.440983
vt 0.481072 0.440983
vt 0.518928 0.559017
vt 0.419821 0.631966
vt 0.297319 0.250000
vt 0.419821 0.250000
vt 0.457677 0.368034
vt 0.740536 0.250000
vt 0.839643 0.322949
vt 0.801787 0.440983
vt 0.679285 0.440983
vt 0.641430 0.322949
vt 0.580179 0.368034
vt 0.641430 0.559017
vt 0.740536 0.631966
vt 0.702681 0.750000
vt 0.580179 0.750000
vt 0.542323 0.631966
vt 0.839643 0.559017
vt 0.938749 0.631966
vt 0.900894 0.750000
vt 0.778391 0.750000
vt 0.900894 0.368034
vt 1.000000 0.440983
vt 0.962145 0.559017
vn 0.778102 -0.628138 0.000000
vn 0.482679 -0.706975 -0.516921
vn 0.763954 0.645173 -0.011247
vn 0.383483 -0.385382 -0.839298
vn 0.382669 0.797481 -0.466464
vn 0.423303 -0.717582 0.553074
vn 0.316258 -0.187807 0.929898
vn 0.411973 0.858366 0.305754
vn 0.040678 -0.964247 -0.261866
vn 0.000000 -0.983571 0.180522
vn -0.443398 0.282749 0.850559
vn -0.464163 -0.724224 0.509953
vn -0.881575 -0.472043 0.001085
vn -0.362418 -0.793197 -0.489379
vn -0.396298 0.032718 -0.917539
vn 0.056269 0.990046 -0.129008
vn -0.463317 0.698545 -0.545318
vn -0.007930 0.965932 0.258673
vn -0.315188 0.933448 0.171261
vn -0.884316 0.435101 0.169327
f 21/45/21 25/46/22 22/42/23
f 25/46/22 23/47/24 22/42/23
f 23/47/24 24/44/25 22/42/23
f 21/45/21 22/42/23 27/48/26
f 27/48/26 22/42/23 26/52/27
f 28/41/28 26/52/27 22/42/23
f 25/51/22 21/45/21 40/50/29
f 40/50/29 21/45/21 37/49/30
f 21/45/21 27/48/26 37/49/30
f 31/53/31 32/54/32 26/52/27
f 26/52/27 32/54/32 27/48/26
f 32/54/32 37/55/30 27/48/26
f 29/65/33 36/66/34 32/69/32
f 32/69/32 36/66/34 37/68/30
f 37/68/30 36/66/34 40/67/29
f 25/72/22 40/73/29 23/71/24
f 40/73/29 36/66/34 23/71/24
f 36/66/34 34/70/35 23/71/24
f 39/74/36 24/75/25 35/61/37
f 35/61/37 24/75/25 34/70/35
f 23/76/24 34/70/35 24/75/25
f 38/40/38 28/41/28 39/39/36
f 39/39/36 28/41/28 24/43/25
f 22/42/23 24/43/25 28/41/28
f 33/57/39 31/58/31 38/56/38
f 26/52/27 28/41/28 31/58/31
f 28/41/28 38/56/38 31/58/31
f 33/64/39 30/62/40 31/53/31
f 31/53/31 30/62/40 32/54/32
f 29/65/33 32/54/32 30/62/40
f 38/59/38 39/60/36 33/63/39
f 39/60/36 35/61/37 33/63/39
f 30/62/40 33/63/39 35/61/37
f 36/66/34 29/65/33 34/70/35
f 34/70/35 29/65/33 35/61/37
f 30/62/40 35/61/37 29/65/33
