# This file uses centimeters as units for non-parametric coordinates.

mtllib bed.mtl
v -0.005366 -0.000506 -1.750000
v -0.422132 -0.284005 -1.050000
v -0.341512 -0.476897 -1.050000
v -0.130446 -0.596110 -1.050000
v 0.130446 -0.596110 -1.050000
v 0.341512 -0.476896 -1.050000
v 0.422132 -0.284005 -1.050000
v -0.588403 -0.357297 -0.350000
v -0.476028 -0.575329 -0.350000
v -0.181827 -0.697365 -0.350000
v 0.181827 -0.697365 -0.350000
v 0.476028 -0.575329 -0.350000
v 0.588403 -0.357297 -0.350000
v -0.588403 -0.357297 0.350000
v -0.476028 -0.575329 0.350000
v -0.181827 -0.697365 0.350000
v 0.181827 -0.697365 0.350000
v 0.476028 -0.575329 0.350000
v 0.588403 -0.357297 0.350000
v -0.422132 -0.284005 1.050000
v -0.341512 -0.476897 1.050000
v -0.130446 -0.596110 1.050000
v 0.130446 -0.596110 1.050000
v 0.341512 -0.476896 1.050000
v 0.422132 -0.284005 1.050000
v -0.005366 -0.000506 1.750000
vt 0.525744 0.312510
vt 0.475000 0.387688
vt 0.500000 0.387688
vt 0.525000 0.387688
vt 0.550000 0.387688
vt 0.575000 0.387688
vt 0.600000 0.387688
vt 0.475000 0.462876
vt 0.500000 0.462876
vt 0.525000 0.462876
vt 0.550000 0.462876
vt 0.575000 0.462876
vt 0.600000 0.462876
vt 0.475000 0.538064
vt 0.500000 0.538064
vt 0.525000 0.538064
vt 0.550000 0.538064
vt 0.575000 0.538064
vt 0.600000 0.538064
vt 0.475000 0.613252
vt 0.500000 0.613252
vt 0.525000 0.613252
vt 0.550000 0.613252
vt 0.575000 0.613252
vt 0.600000 0.613252
vt 0.525744 0.688430
vn 0.753911 0.315102 0.576480
vn 0.820326 0.342860 0.457725
vn 0.849821 0.372792 0.372600
vn 0.378661 0.670414 0.638092
vn 0.431057 0.763181 0.481398
vn 0.430787 0.811140 0.395569
vn 0.000000 0.761615 0.648030
vn 0.000000 0.902219 0.431278
vn 0.000000 0.909228 0.416298
vn -0.377260 0.667933 0.641514
vn -0.430238 0.809970 0.398553
vn -0.430435 0.762079 0.483695
vn -0.748888 0.313002 0.584120
vn -0.848278 0.372080 0.376804
vn -0.817713 0.341767 0.463185
vn 0.886676 0.446359 0.120701
vn 0.883430 0.455325 0.110597
vn 0.392405 0.916044 0.082956
vn 0.381963 0.920824 0.078660
vn 0.000000 0.997678 0.068113
vn 0.000000 0.997514 0.070471
vn -0.381963 0.920824 0.078660
vn -0.392406 0.916044 0.082956
vn -0.883430 0.455325 0.110597
vn -0.886677 0.446359 0.120701
vn 0.886676 0.446359 -0.120701
vn 0.883430 0.455325 -0.110597
vn 0.392405 0.916044 -0.082956
vn 0.381963 0.920824 -0.078660
vn 0.000000 0.997514 -0.070471
vn 0.000000 0.997678 -0.068113
vn -0.381963 0.920824 -0.078660
vn -0.392406 0.916044 -0.082956
vn -0.883430 0.455325 -0.110597
vn -0.886677 0.446359 -0.120701
vn 0.820326 0.342860 -0.457725
vn 0.849821 0.372792 -0.372600
vn 0.431057 0.763181 -0.481399
vn 0.430787 0.811140 -0.395569
vn 0.000000 0.908870 -0.417080
vn 0.000000 0.902587 -0.430507
vn -0.430238 0.809970 -0.398553
vn -0.430435 0.762079 -0.483695
vn -0.848278 0.372080 -0.376804
vn -0.817713 0.341767 -0.463185
vn 0.753911 0.315102 -0.576480
vn 0.378661 0.670414 -0.638092
vn 0.000000 0.761615 -0.648030
vn -0.377260 0.667933 -0.641514
vn -0.748889 0.313002 -0.584120
usemtl initialShadingGroup
f 1/1/1 2/2/2 3/3/3
f 1/1/4 3/3/5 4/4/6
f 1/1/7 4/4/8 5/5/9
f 1/1/10 5/5/11 6/6/12
f 1/1/13 6/6/14 7/7/15
f 2/2/2 8/8/16 3/3/3
f 3/3/3 8/8/16 9/9/17
f 3/3/5 9/9/18 4/4/6
f 4/4/6 9/9/18 10/10/19
f 4/4/8 10/10/20 5/5/9
f 5/5/9 10/10/20 11/11/21
f 11/11/22 12/12/23 5/5/11
f 5/5/11 12/12/23 6/6/12
f 12/12/24 13/13/25 6/6/14
f 6/6/14 13/13/25 7/7/15
f 8/8/16 14/14/26 9/9/17
f 9/9/17 14/14/26 15/15/27
f 9/9/18 15/15/28 10/10/19
f 10/10/19 15/15/28 16/16/29
f 10/10/20 16/16/30 11/11/21
f 11/11/21 16/16/30 17/17/31
f 11/11/22 17/17/32 12/12/23
f 12/12/23 17/17/32 18/18/33
f 12/12/24 18/18/34 13/13/25
f 13/13/25 18/18/34 19/19/35
f 20/20/36 21/21/37 14/14/26
f 14/14/26 21/21/37 15/15/27
f 21/21/38 22/22/39 15/15/28
f 15/15/28 22/22/39 16/16/29
f 16/16/30 22/22/40 17/17/31
f 17/17/31 22/22/40 23/23/41
f 17/17/32 23/23/42 18/18/33
f 18/18/33 23/23/42 24/24/43
f 18/18/34 24/24/44 19/19/35
f 19/19/35 24/24/44 25/25/45
f 20/20/36 26/26/46 21/21/37
f 21/21/38 26/26/47 22/22/39
f 22/22/40 26/26/48 23/23/41
f 23/23/42 26/26/49 24/24/43
f 24/24/44 26/26/50 25/25/45
