# This file uses centimeters as units for non-parametric coordinates.

mtllib lisc.mtl
v 0.707107 0.005317 -0.707107
v 0.000000 0.005317 -1.000000
v -0.707107 0.005317 -0.707107
v -1.000000 0.005317 0.000000
v -0.707107 0.005317 0.707107
v 0.000000 0.005317 1.000000
v 0.707107 0.005317 0.707107
v 1.000000 0.005317 0.000000
v 0.000000 0.005317 0.000000
v 0.707107 0.076092 -0.707107
v 0.000000 0.076092 -1.000000
v -0.707107 0.076092 -0.707107
v -1.000000 0.076092 0.000000
v -0.707107 0.076092 0.707107
v -0.000000 0.076092 1.000000
v 0.707107 0.076092 0.707107
v 1.000000 0.076092 0.000000
vt 0.610485 0.733265
vt 0.500000 0.687500
vt 0.389515 0.733265
vt 0.343750 0.843750
vt 0.389515 0.954235
vt 0.500000 1.000000
vt 0.610485 0.954235
vt 0.656250 0.843750
vt 0.500000 0.837500
vt 0.000000 0.000000
vt 1.000000 0.000000
vt 1.000000 1.000000
vt 0.000000 1.000000
vt 0.000000 0.000000
vt 1.000000 0.000000
vt 1.000000 1.000000
vt 0.000000 1.000000
vt 0.000000 0.000000
vt 1.000000 0.000000
vt 1.000000 1.000000
vt 0.000000 1.000000
vt 0.000000 0.000000
vt 1.000000 0.000000
vt 1.000000 1.000000
vt 0.000000 1.000000
vt 0.000000 0.000000
vt 1.000000 0.000000
vt 1.000000 1.000000
vt 0.000000 1.000000
vt 0.000000 0.000000
vt 1.000000 0.000000
vt 1.000000 1.000000
vt 0.000000 1.000000
vt 0.000000 0.000000
vt 1.000000 0.000000
vt 1.000000 1.000000
vt 0.000000 1.000000
vn 0.000000 1.000000 0.000000
vn 0.000000 1.000000 0.000000
vn 0.000000 1.000000 0.000000
vn 0.000000 1.000000 0.000000
vn 0.000000 1.000000 0.000000
vn 0.000000 1.000000 0.000000
vn 0.000000 1.000000 0.000000
vn 0.000000 1.000000 0.000000
vn 0.000000 1.000000 0.000000
vn -0.382684 0.000000 0.923880
vn -0.382683 0.000000 0.923880
vn -0.382684 0.000000 0.923880
vn -0.382683 0.000000 0.923880
vn 0.382683 0.000000 0.923880
vn 0.382684 0.000000 0.923880
vn 0.382683 0.000000 0.923880
vn 0.382684 0.000000 0.923880
vn 0.923880 -0.000000 0.382683
vn 0.923880 -0.000000 0.382683
vn 0.923880 -0.000000 0.382683
vn 0.923880 0.000000 0.382683
vn 0.382684 0.000000 -0.923880
vn 0.382683 0.000000 -0.923880
vn 0.382684 0.000000 -0.923880
vn 0.382683 0.000000 -0.923880
vn -0.382683 0.000000 -0.923880
vn -0.382683 0.000000 -0.923880
vn -0.382683 0.000000 -0.923880
vn -0.382683 0.000000 -0.923880
vn -0.923880 0.000000 -0.382683
vn -0.923880 0.000000 -0.382683
vn -0.923880 0.000000 -0.382684
vn -0.923880 0.000000 -0.382683
vn -0.923880 0.000000 0.382684
vn -0.923880 0.000000 0.382684
vn -0.923880 0.000000 0.382684
vn -0.923879 0.000000 0.382684
usemtl initialShadingGroup
f 1/7/1 2/6/2 9/9/3
f 2/6/2 3/5/4 9/9/3
f 3/5/4 4/4/5 9/9/3
f 5/3/6 6/2/7 9/9/3
f 6/2/7 7/1/8 9/9/3
f 7/1/8 8/8/9 9/9/3
f 8/8/9 1/7/1 9/9/3
f 2/10/10 1/11/11 11/13/12
f 11/13/12 1/11/11 10/12/13
f 3/14/14 2/15/15 12/17/16
f 12/17/16 2/15/15 11/16/17
f 4/18/18 3/19/19 13/21/20
f 13/21/20 3/19/19 12/20/21
f 6/22/22 5/23/23 15/25/24
f 15/25/24 5/23/23 14/24/25
f 7/26/26 6/27/27 16/29/28
f 16/29/28 6/27/27 15/28/29
f 8/30/30 7/31/31 17/33/32
f 17/33/32 7/31/31 16/32/33
f 1/34/34 8/35/35 10/37/36
f 10/37/36 8/35/35 17/36/37
v 0.707107 0.005317 -0.707107
v 0.000000 0.005317 -1.000000
v -0.707107 0.005317 -0.707107
v -1.000000 0.005317 0.000000
v -0.707107 0.005317 0.707107
v 0.000000 0.005317 1.000000
v 0.707107 0.005317 0.707107
v 1.000000 0.005317 0.000000
v 0.000000 0.005317 0.000000
v 0.707107 0.076092 -0.707107
v 0.000000 0.076092 -1.000000
v -0.707107 0.076092 -0.707107
v -1.000000 0.076092 0.000000
v -0.707107 0.076092 0.707107
v -0.000000 0.076092 1.000000
v 0.707107 0.076092 0.707107
v 1.000000 0.076092 0.000000
vt 0.610485 0.733265
vt 0.500000 0.687500
vt 0.389515 0.733265
vt 0.343750 0.843750
vt 0.389515 0.954235
vt 0.500000 1.000000
vt 0.610485 0.954235
vt 0.656250 0.843750
vt 0.500000 0.837500
vt 0.000000 0.000000
vt 1.000000 0.000000
vt 1.000000 1.000000
vt 0.000000 1.000000
vt 0.000000 0.000000
vt 1.000000 0.000000
vt 1.000000 1.000000
vt 0.000000 1.000000
vt 0.000000 0.000000
vt 1.000000 0.000000
vt 1.000000 1.000000
vt 0.000000 1.000000
vt 0.000000 0.000000
vt 1.000000 0.000000
vt 1.000000 1.000000
vt 0.000000 1.000000
vt 0.000000 0.000000
vt 1.000000 0.000000
vt 1.000000 1.000000
vt 0.000000 1.000000
vt 0.000000 0.000000
vt 1.000000 0.000000
vt 1.000000 1.000000
vt 0.000000 1.000000
vt 0.000000 0.000000
vt 1.000000 0.000000
vt 1.000000 1.000000
vt 0.000000 1.000000
vn 0.000000 1.000000 0.000000
vn 0.000000 1.000000 0.000000
vn 0.000000 1.000000 0.000000
vn 0.000000 1.000000 0.000000
vn 0.000000 1.000000 0.000000
vn 0.000000 1.000000 0.000000
vn 0.000000 1.000000 0.000000
vn 0.000000 1.000000 0.000000
vn 0.000000 1.000000 0.000000
vn -0.382684 0.000000 0.923880
vn -0.382683 0.000000 0.923880
vn -0.382684 0.000000 0.923880
vn -0.382683 0.000000 0.923880
vn 0.382683 0.000000 0.923880
vn 0.382684 0.000000 0.923880
vn 0.382683 0.000000 0.923880
vn 0.382684 0.000000 0.923880
vn 0.923880 -0.000000 0.382683
vn 0.923880 -0.000000 0.382683
vn 0.923880 -0.000000 0.382683
vn 0.923880 0.000000 0.382683
vn 0.382684 0.000000 -0.923880
vn 0.382683 0.000000 -0.923880
vn 0.382684 0.000000 -0.923880
vn 0.382683 0.000000 -0.923880
vn -0.382683 0.000000 -0.923880
vn -0.382683 0.000000 -0.923880
vn -0.382683 0.000000 -0.923880
vn -0.382683 0.000000 -0.923880
vn -0.923880 0.000000 -0.382683
vn -0.923880 0.000000 -0.382683
vn -0.923880 0.000000 -0.382684
vn -0.923880 0.000000 -0.382683
vn -0.923880 0.000000 0.382684
vn -0.923880 0.000000 0.382684
vn -0.923880 0.000000 0.382684
vn -0.923879 0.000000 0.382684
f 18/44/38 19/43/39 26/46/40
f 19/43/39 20/42/41 26/46/40
f 20/42/41 21/41/42 26/46/40
f 22/40/43 23/39/44 26/46/40
f 23/39/44 24/38/45 26/46/40
f 24/38/45 25/45/46 26/46/40
f 25/45/46 18/44/38 26/46/40
f 19/47/47 18/48/48 28/50/49
f 28/50/49 18/48/48 27/49/50
f 20/51/51 19/52/52 29/54/53
f 29/54/53 19/52/52 28/53/54
f 21/55/55 20/56/56 30/58/57
f 30/58/57 20/56/56 29/57/58
f 23/59/59 22/60/60 32/62/61
f 32/62/61 22/60/60 31/61/62
f 24/63/63 23/64/64 33/66/65
f 33/66/65 23/64/64 32/65/66
f 25/67/67 24/68/68 34/70/69
f 34/70/69 24/68/68 33/69/70
f 18/71/71 25/72/72 27/74/73
f 27/74/73 25/72/72 34/73/74
