# This file uses centimeters as units for non-parametric coordinates.

mtllib tree.mtl
v 1.240350 3.265793 -0.000000
v 0.991918 3.977223 0.000000
v 0.473771 3.621508 -1.247886
v 0.566429 4.010246 -0.553949
v 0.766578 2.833483 -0.771236
v 0.473771 3.621508 1.247886
v 0.628615 3.045949 0.608543
v 0.691096 4.197067 1.155729
v -1.240350 2.968927 -0.000000
v -0.668849 3.977223 0.000000
v -0.473771 3.621508 1.247886
v -0.766578 3.045949 0.771236
v -0.766578 4.197067 0.771236
v -0.473771 3.621508 -1.440222
v -0.766578 4.197067 -0.771236
v -0.766578 3.045949 -0.771236
v -0.000000 2.600277 0.476650
v -0.000000 4.552782 0.476650
v -0.000000 4.552782 -0.476650
v -0.000000 2.690234 -0.476650
vt 0.099106 0.250000
vt 0.221609 0.250000
vt 0.259464 0.368034
vt 0.160357 0.440983
vt 0.061251 0.368034
vt 0.037855 0.440983
vt 0.198213 0.559017
vt 0.099106 0.631966
vt 0.000000 0.559017
vt 0.320715 0.559017
vt 0.358570 0.677051
vt 0.259464 0.750000
vt 0.160357 0.677051
vt 0.358570 0.440983
vt 0.481072 0.440983
vt 0.518928 0.559017
vt 0.419821 0.631966
vt 0.297319 0.250000
vt 0.419821 0.250000
vt 0.457677 0.368034
vt 0.740536 0.250000
vt 0.839643 0.322949
vt 0.801787 0.440983
vt 0.679285 0.440983
vt 0.641430 0.322949
vt 0.580179 0.368034
vt 0.641430 0.559017
vt 0.740536 0.631966
vt 0.702681 0.750000
vt 0.580179 0.750000
vt 0.542323 0.631966
vt 0.839643 0.559017
vt 0.938749 0.631966
vt 0.900894 0.750000
vt 0.778391 0.750000
vt 0.900894 0.368034
vt 1.000000 0.440983
vt 0.962145 0.559017
vn 0.958534 -0.284952 -0.003810
vn 0.466441 -0.770692 -0.434127
vn 0.780226 0.607691 -0.148186
vn 0.733533 0.487757 -0.473311
vn 0.529563 0.230482 -0.816359
vn 0.509037 0.645590 0.569293
vn 0.336170 -0.099801 0.936498
vn 0.517793 -0.743163 0.423791
vn -0.006674 -0.944133 0.329496
vn -0.099416 -0.985783 -0.135455
vn -0.431046 0.089559 0.897875
vn -0.396459 -0.730156 0.556500
vn -0.547135 -0.667619 -0.504905
vn -0.879270 -0.475059 -0.034677
vn -0.313596 -0.021547 -0.949312
vn -0.682176 0.648963 -0.336872
vn 0.118333 0.950690 -0.286680
vn -0.057890 0.953113 0.297026
vn -0.695044 0.605444 0.387751
vn -0.811044 0.584098 0.032213
usemtl phong2SG
f 1/7/1 5/8/2 2/4/3
f 2/4/3 5/8/2 4/6/4
f 5/8/2 3/9/5 4/6/4
f 2/4/3 8/3/6 1/7/1
f 8/3/6 6/14/7 1/7/1
f 6/14/7 7/10/8 1/7/1
f 17/11/9 20/12/10 7/10/8
f 20/12/10 5/13/2 7/10/8
f 1/7/1 7/10/8 5/13/2
f 11/15/11 12/16/12 6/14/7
f 12/16/12 17/17/9 6/14/7
f 6/14/7 17/17/9 7/10/8
f 17/30/9 12/31/12 20/29/10
f 20/29/10 12/31/12 16/28/13
f 12/31/12 9/27/14 16/28/13
f 3/33/5 5/34/2 14/32/15
f 14/32/15 5/34/2 16/28/13
f 5/34/2 20/35/10 16/28/13
f 15/23/16 19/36/17 14/32/15
f 14/32/15 19/36/17 3/38/5
f 3/38/5 19/36/17 4/37/4
f 4/5/4 19/1/17 2/4/3
f 2/4/3 19/1/17 8/3/6
f 19/1/17 18/2/18 8/3/6
f 13/19/19 11/20/11 18/18/18
f 11/20/11 6/14/7 18/18/18
f 8/3/6 18/18/18 6/14/7
f 10/24/20 9/27/14 13/26/19
f 13/26/19 9/27/14 11/15/11
f 9/27/14 12/16/12 11/15/11
f 19/22/17 15/23/16 18/21/18
f 15/23/16 10/24/20 18/21/18
f 10/24/20 13/25/19 18/21/18
f 10/24/20 15/23/16 9/27/14
f 9/27/14 15/23/16 16/28/13
f 15/23/16 14/32/15 16/28/13
v 0.176312 2.625123 1.468977
v 0.363399 3.112875 1.572885
v 0.289212 3.086198 0.501379
v 0.317549 3.397835 0.974876
v 0.317549 2.608636 0.806750
v -0.427685 2.726711 2.188844
v -0.167924 2.386460 1.714323
v -0.125518 3.175659 2.017787
v -1.036639 2.746332 0.900012
v -1.036639 3.234084 1.003919
v -0.962452 2.773008 1.971518
v -0.990789 2.461372 1.498021
v -0.797092 3.250571 1.666147
v -0.245555 3.132496 0.284053
v -0.547722 3.472746 0.623236
v -0.547722 2.683547 0.455110
v -0.473535 2.180891 1.422709
v -0.414184 3.499423 1.648058
v -0.199704 3.636735 1.050188
v -0.199704 2.359784 0.778154
vt 0.099106 0.250000
vt 0.221609 0.250000
vt 0.259464 0.368034
vt 0.160357 0.440983
vt 0.061251 0.368034
vt 0.037855 0.440983
vt 0.198213 0.559017
vt 0.099106 0.631966
vt 0.000000 0.559017
vt 0.320715 0.559017
vt 0.358570 0.677051
vt 0.259464 0.750000
vt 0.160357 0.677051
vt 0.358570 0.440983
vt 0.481072 0.440983
vt 0.518928 0.559017
vt 0.419821 0.631966
vt 0.297319 0.250000
vt 0.419821 0.250000
vt 0.457677 0.368034
vt 0.740536 0.250000
vt 0.839643 0.322949
vt 0.801787 0.440983
vt 0.679285 0.440983
vt 0.641430 0.322949
vt 0.580179 0.368034
vt 0.641430 0.559017
vt 0.740536 0.631966
vt 0.702681 0.750000
vt 0.580179 0.750000
vt 0.542323 0.631966
vt 0.839643 0.559017
vt 0.938749 0.631966
vt 0.900894 0.750000
vt 0.778391 0.750000
vt 0.900894 0.368034
vt 1.000000 0.440983
vt 0.962145 0.559017
vn 0.771301 -0.496169 0.398636
vn 0.799950 -0.536452 -0.268884
vn 0.888011 0.160847 0.430772
vn 0.767682 0.036543 -0.639789
vn 0.648509 0.758530 -0.063785
vn 0.463537 -0.789335 0.402595
vn 0.101893 -0.317267 0.942846
vn 0.258940 0.575286 0.775884
vn -0.140674 -0.989172 0.041824
vn 0.123047 -0.863500 -0.489108
vn -0.813599 -0.014905 0.581235
vn -0.728027 -0.681967 0.069979
vn -0.840608 -0.291328 -0.456625
vn -0.371442 -0.545598 -0.751235
vn -0.068507 0.162003 -0.984409
vn -0.409243 0.726334 -0.552231
vn 0.097282 0.994806 -0.029972
vn -0.181089 0.888141 0.422389
vn -0.634886 0.670389 0.384055
vn -0.855619 0.487447 -0.174102
f 21/45/21 25/46/22 22/42/23
f 25/46/22 23/47/24 22/42/23
f 23/47/24 24/44/25 22/42/23
f 27/48/26 21/45/21 26/52/27
f 21/45/21 22/42/23 26/52/27
f 28/41/28 26/52/27 22/42/23
f 21/45/21 27/48/26 25/51/22
f 27/48/26 37/49/29 25/51/22
f 37/49/29 40/50/30 25/51/22
f 31/53/31 32/54/32 26/52/27
f 32/54/32 37/55/29 26/52/27
f 26/52/27 37/55/29 27/48/26
f 29/65/33 36/66/34 32/69/32
f 32/69/32 36/66/34 37/68/29
f 37/68/29 36/66/34 40/67/30
f 25/72/22 40/73/30 23/71/24
f 23/71/24 40/73/30 34/70/35
f 40/73/30 36/66/34 34/70/35
f 35/61/36 39/74/37 34/70/35
f 39/74/37 24/75/25 34/70/35
f 23/76/24 34/70/35 24/75/25
f 22/42/23 24/43/25 28/41/28
f 24/43/25 39/39/37 28/41/28
f 39/39/37 38/40/38 28/41/28
f 26/52/27 28/41/28 31/58/31
f 28/41/28 38/56/38 31/58/31
f 38/56/38 33/57/39 31/58/31
f 33/64/39 30/62/40 31/53/31
f 31/53/31 30/62/40 32/54/32
f 29/65/33 32/54/32 30/62/40
f 33/63/39 38/59/38 30/62/40
f 38/59/38 39/60/37 30/62/40
f 30/62/40 39/60/37 35/61/36
f 30/62/40 35/61/36 29/65/33
f 35/61/36 34/70/35 29/65/33
f 34/70/35 36/66/34 29/65/33
v 1.532735 2.101968 0.653481
v 1.532735 2.570114 0.653481
v 1.141347 2.336041 0.197892
v 1.284844 2.723049 0.388254
v 1.298662 1.957302 0.274743
v 1.153997 2.336041 1.266293
v 1.298662 1.957302 1.032220
v 1.269078 2.655450 0.930016
v 0.307111 2.101968 0.653481
v 0.307111 2.570114 0.653481
v 0.685850 2.336041 1.266293
v 0.375271 1.957302 1.014196
v 0.541185 2.714780 1.032220
v 0.685850 2.336041 0.040669
v 0.541185 2.714780 0.274743
v 0.541185 1.957302 0.274743
v 0.948877 1.890748 0.860722
v 0.895756 2.822299 1.046690
v 0.919923 2.948853 0.419408
v 0.919923 1.723229 0.419408
vt 0.099106 0.250000
vt 0.221609 0.250000
vt 0.259464 0.368034
vt 0.160357 0.440983
vt 0.061251 0.368034
vt 0.037855 0.440983
vt 0.198213 0.559017
vt 0.099106 0.631966
vt 0.000000 0.559017
vt 0.320715 0.559017
vt 0.358570 0.677051
vt 0.259464 0.750000
vt 0.160357 0.677051
vt 0.358570 0.440983
vt 0.481072 0.440983
vt 0.518928 0.559017
vt 0.419821 0.631966
vt 0.297319 0.250000
vt 0.419821 0.250000
vt 0.457677 0.368034
vt 0.740536 0.250000
vt 0.839643 0.322949
vt 0.801787 0.440983
vt 0.679285 0.440983
vt 0.641430 0.322949
vt 0.580179 0.368034
vt 0.641430 0.559017
vt 0.740536 0.631966
vt 0.702681 0.750000
vt 0.580179 0.750000
vt 0.542323 0.631966
vt 0.839643 0.559017
vt 0.938749 0.631966
vt 0.900894 0.750000
vt 0.778391 0.750000
vt 0.900894 0.368034
vt 1.000000 0.440983
vt 0.962145 0.559017
vn 0.558227 -0.511095 -0.653578
vn 0.536760 0.123721 -0.834615
vn 0.927579 -0.372870 0.023778
vn 0.566777 0.464603 -0.680374
vn 0.922640 0.369248 0.111319
vn 0.504410 -0.666012 0.549544
vn 0.413767 0.022934 0.910094
vn 0.562573 0.711483 0.421075
vn -0.012564 -0.969990 -0.242818
vn -0.006593 -0.932365 0.361459
vn -0.312760 -0.142930 0.939017
vn -0.573313 -0.562923 0.595340
vn -0.559962 -0.567685 -0.603470
vn -0.989473 -0.134280 -0.053971
vn -0.199611 0.028349 -0.979465
vn -0.491271 0.569723 -0.658839
vn 0.005376 0.956651 -0.291186
vn 0.094069 0.840460 0.533645
vn -0.621006 0.651146 0.436302
vn -0.916388 0.393936 0.071042
f 45/84/41 43/85/42 41/83/43
f 43/85/42 44/82/44 41/83/43
f 41/83/43 44/82/44 42/80/45
f 47/86/46 41/83/43 46/90/47
f 41/83/43 42/80/45 46/90/47
f 48/79/48 46/90/47 42/80/45
f 45/89/41 41/83/43 60/88/49
f 41/83/43 47/86/46 60/88/49
f 47/86/46 57/87/50 60/88/49
f 46/90/47 51/91/51 47/86/46
f 51/91/51 52/92/52 47/86/46
f 52/92/52 57/93/50 47/86/46
f 57/106/50 52/107/52 60/105/49
f 60/105/49 52/107/52 56/104/53
f 52/107/52 49/103/54 56/104/53
f 43/109/42 45/110/41 54/108/55
f 54/108/55 45/110/41 56/104/53
f 45/110/41 60/111/49 56/104/53
f 43/114/42 54/108/55 44/113/44
f 54/108/55 55/99/56 44/113/44
f 55/99/56 59/112/57 44/113/44
f 58/78/58 48/79/48 59/77/57
f 48/79/48 42/80/45 59/77/57
f 42/80/45 44/81/44 59/77/57
f 48/79/48 58/94/58 46/90/47
f 46/90/47 58/94/58 51/96/51
f 58/94/58 53/95/59 51/96/51
f 52/92/52 51/91/51 49/103/54
f 49/103/54 51/91/51 50/100/60
f 51/91/51 53/102/59 50/100/60
f 58/97/58 59/98/57 53/101/59
f 53/101/59 59/98/57 50/100/60
f 50/100/60 59/98/57 55/99/56
f 50/100/60 55/99/56 49/103/54
f 49/103/54 55/99/56 56/104/53
f 55/99/56 54/108/55 56/104/53
v 0.191152 -0.035535 -0.681274
v -0.609733 -0.035535 -0.421050
v -0.609733 -0.035535 0.421050
v 0.191152 -0.035535 0.681274
v 0.686125 -0.035535 -0.000000
v 0.141047 0.790305 -0.458101
v -0.397484 0.790305 -0.283122
v -0.397484 0.790305 0.283122
v 0.141047 0.790305 0.458101
v 0.473877 0.790305 0.000000
v -0.030207 -0.035535 -0.000000
v 0.112202 2.375194 -0.252460
v -0.275294 2.375194 -0.126555
v -0.275294 2.375194 0.280882
v 0.112202 2.375194 0.406787
v 0.351687 2.375194 0.077163
v -0.000835 3.648731 -0.243039
v -0.301454 3.648731 -0.145362
v -0.083924 3.648732 0.012683
v -0.301454 3.648731 0.170727
v -0.000835 3.648732 0.268404
v 0.184957 3.648731 0.012683
v 0.115371 2.065553 -0.288021
v -0.288720 2.065553 -0.156724
v -0.288720 2.065553 0.268163
v 0.115371 2.065553 0.399460
v 0.365113 2.065553 0.055719
v -0.570479 2.931405 1.394551
v -0.303827 2.931405 1.481192
v -0.305918 3.241046 1.486026
v -0.561619 3.241046 1.402944
v 0.118562 1.753885 -0.323815
v -0.302234 1.753885 -0.187091
v -0.302234 1.753885 0.255360
v 0.118561 1.753885 0.392085
v 0.378628 1.753885 0.034135
v -0.268919 2.650328 -1.188021
v -0.529368 2.650328 -1.051296
v -0.521003 2.843234 -1.020929
v -0.270893 2.843234 -1.152226
v 0.669685 2.102780 0.708424
v 0.847710 2.102780 0.463393
v 0.838459 2.353649 0.478168
v 0.667501 2.353649 0.713472
vt 0.548284 0.007647
vt 0.373591 0.064409
vt 0.373591 0.248091
vt 0.548284 0.304853
vt 0.656250 0.156250
vt 0.006489 0.387589
vt 0.203893 0.387589
vt 0.401298 0.387589
vt 0.598702 0.387589
vt 0.796107 0.387589
vt 0.993511 0.387589
vt 0.006489 0.663915
vt 0.203893 0.663915
vt 0.401298 0.663915
vt 0.598702 0.663915
vt 0.796107 0.663915
vt 0.993511 0.663915
vt 0.603749 0.106793
vt 0.138636 0.257918
vt 0.138636 0.746967
vt 0.603749 0.898091
vt 0.891205 0.502442
vt 0.500000 0.150000
vt 0.500000 0.837500
vt 0.603749 0.898091
vt 0.138636 0.746967
vt 0.138636 0.257918
vt 0.603749 0.106793
vt 0.891205 0.502442
vt 0.603749 0.898091
vt 0.138636 0.746967
vt 0.138636 0.257918
vt 0.603749 0.106793
vt 0.891205 0.502442
vt 0.603749 0.898091
vt 0.138636 0.746967
vt 0.138636 0.257918
vt 0.603749 0.106793
vt 0.891205 0.502442
vt 0.138636 0.257918
vt 0.603749 0.106793
vt 0.603749 0.106793
vt 0.138636 0.257918
vt 0.603749 0.898091
vt 0.138636 0.746967
vt 0.138636 0.257918
vt 0.603749 0.106793
vt 0.891205 0.502442
vt 0.603749 0.898091
vt 0.138636 0.746967
vt 0.138636 0.746967
vt 0.603749 0.898091
vt 0.603749 0.106793
vt 0.891205 0.502442
vt 0.891205 0.502442
vt 0.603749 0.106793
vn -0.300603 0.231774 -0.925159
vn -0.303614 0.186190 -0.934426
vn -0.300603 0.231774 -0.925159
vn -0.304077 0.178088 -0.935854
vn -0.968524 0.248920 0.000000
vn -0.968524 0.248920 0.000000
vn -0.983015 0.183523 0.000000
vn -0.984380 0.176056 0.000000
vn -0.300603 0.231774 0.925159
vn -0.300603 0.231774 0.925159
vn -0.305216 0.156363 0.939358
vn -0.305644 0.147347 0.940676
vn 0.792077 0.203572 0.575476
vn 0.792077 0.203571 0.575477
vn 0.800864 0.141617 0.581861
vn 0.801931 0.132060 0.582637
vn 0.792077 0.203572 -0.575476
vn 0.798786 0.158538 -0.580351
vn 0.792077 0.203571 -0.575476
vn 0.799497 0.152962 -0.580868
vn 0.000000 -1.000000 0.000000
vn 0.000000 -1.000000 0.000000
vn 0.000000 -1.000000 -0.000000
vn 0.000000 -1.000000 -0.000000
vn 0.000000 -1.000000 -0.000000
vn 0.000000 -1.000000 -0.000000
vn 0.000001 1.000000 -0.000002
vn -0.000001 1.000000 -0.000001
vn -0.000000 1.000000 -0.000001
vn -0.000002 1.000000 0.000000
vn -0.000000 1.000000 0.000000
vn 0.000002 1.000000 -0.000001
vn -0.307294 0.105471 -0.945752
vn -0.307293 0.105471 -0.945752
vn -0.309010 0.006605 -0.951036
vn -0.309013 0.004996 -0.951045
vn -0.985925 0.026223 0.165118
vn -0.991149 0.048060 -0.123748
vn -0.999976 -0.006888 0.000000
vn -0.991666 0.019158 -0.127406
vn -0.308972 -0.016934 0.950920
vn -0.308973 -0.016934 0.950920
vn -0.308973 -0.016934 0.950920
vn -0.308973 -0.016934 0.950920
vn 0.809004 -0.005627 0.587776
vn 0.804600 0.104357 0.584576
vn 0.891410 -0.001599 0.453195
vn 0.869423 0.060912 0.490299
vn 0.889957 0.061709 -0.451850
vn 0.806686 0.075859 -0.586091
vn 0.731685 0.077728 -0.677197
vn 0.806686 0.075860 -0.586091
vn -0.308953 -0.020388 -0.950859
vn -0.308953 -0.020388 -0.950859
vn -0.999789 -0.020537 0.000000
vn -0.999789 -0.020537 0.000000
vn -0.308130 0.075696 0.948328
vn -0.308131 0.075696 0.948328
vn -0.308130 0.075696 0.948328
vn -0.308131 0.075696 0.948328
vn 0.801673 0.134444 0.582448
vn 0.801673 0.134444 0.582448
vn 0.806682 0.075935 -0.586088
vn 0.806682 0.075935 -0.586087
vn -0.459001 0.157541 -0.874357
vn -0.459001 0.157541 -0.874356
vn -0.459001 0.157541 -0.874356
vn -0.459001 0.157540 -0.874356
vn -0.995664 0.071951 0.058957
vn -0.996369 0.085144 0.000000
vn -0.308769 0.040078 0.950292
vn -0.343402 0.026233 0.938822
vn -0.308915 -0.025658 0.950743
vn -0.424850 -0.025378 0.904908
vn 0.809007 -0.004786 0.587779
vn 0.809008 -0.004785 0.587779
vn 0.809008 -0.004785 0.587779
vn 0.809008 -0.004785 0.587778
vn 0.839127 0.085524 -0.537170
vn 0.777827 0.092217 -0.621676
vn -0.185014 -0.800959 0.569415
vn -0.185014 -0.800960 0.569415
vn -0.185014 -0.800959 0.569415
vn -0.185014 -0.800959 0.569415
vn 0.932651 0.000696 0.360778
vn 0.932646 0.000666 0.360792
vn 0.185291 0.800288 -0.570269
vn 0.185292 0.800288 -0.570269
vn 0.185291 0.800288 -0.570269
vn 0.185292 0.800288 -0.570269
vn -0.961321 0.036450 -0.273008
vn -0.961579 0.034895 -0.272300
vn -0.306618 0.124357 -0.943674
vn -0.306618 0.124357 -0.943674
vn 0.807606 0.059045 0.586760
vn 0.807606 0.059045 0.586760
vn -0.219038 -0.705386 -0.674131
vn -0.293732 -0.721316 -0.627236
vn -0.230053 -0.708065 -0.667622
vn -0.319839 -0.725602 -0.609265
vn -0.965156 0.003094 0.261658
vn -0.965523 0.000888 0.260315
vn 0.202854 0.754371 0.624319
vn 0.213240 0.756803 0.617882
vn 0.271005 0.768285 0.579908
vn 0.295407 0.772059 0.562725
vn 0.933191 0.071071 -0.352284
vn 0.933689 0.074545 -0.350239
vn 0.391086 -0.875395 0.284141
vn 0.391086 -0.875394 0.284141
vn 0.391086 -0.875395 0.284141
vn 0.391086 -0.875394 0.284141
vn 0.640423 0.071695 -0.764669
vn 0.640698 0.068666 -0.764717
vn -0.335895 0.909735 -0.244043
vn -0.335896 0.909735 -0.244042
vn -0.335895 0.909735 -0.244042
vn -0.335896 0.909735 -0.244042
vn -0.485567 -0.022781 0.873903
vn -0.485627 -0.021813 0.873894
usemtl initialShadingGroup
f 62/121/61 67/127/62 61/120/63
f 61/120/63 67/127/62 66/126/64
f 62/121/65 63/122/66 67/127/67
f 67/127/67 63/122/66 68/128/68
f 63/122/69 64/123/70 68/128/71
f 68/128/71 64/123/70 69/129/72
f 64/123/73 65/124/74 69/129/75
f 69/129/75 65/124/74 70/130/76
f 61/125/77 66/131/78 65/124/79
f 65/124/79 66/131/78 70/130/80
f 62/116/81 61/115/82 71/137/83
f 63/117/84 62/116/81 71/137/83
f 64/118/85 63/117/84 71/137/83
f 65/119/86 64/118/85 71/137/83
f 61/115/82 65/119/86 71/137/83
f 77/144/87 78/145/88 79/138/89
f 78/145/88 80/146/90 79/138/89
f 80/146/90 81/147/91 79/138/89
f 81/147/91 82/148/92 79/138/89
f 82/148/92 77/144/87 79/138/89
f 83/149/93 84/150/94 72/139/95
f 72/139/95 84/150/94 73/140/96
f 84/150/97 85/151/98 73/140/99
f 73/140/99 85/151/98 74/141/100
f 88/154/101 89/155/102 91/157/103
f 91/157/103 89/155/102 90/156/104
f 87/153/105 76/143/106 86/152/107
f 86/152/107 76/143/106 75/142/108
f 83/149/109 72/139/110 87/153/111
f 87/153/111 72/139/110 76/143/112
f 72/139/95 73/140/96 77/144/113
f 77/144/113 73/140/96 78/145/114
f 74/141/100 80/146/115 73/140/99
f 73/140/99 80/146/115 78/145/116
f 75/142/117 81/147/118 74/141/119
f 74/141/119 81/147/118 80/146/120
f 75/142/108 76/143/106 81/147/121
f 81/147/121 76/143/106 82/148/122
f 76/143/112 72/139/110 82/148/123
f 82/148/123 72/139/110 77/144/124
f 97/163/125 98/164/126 100/166/127
f 100/166/127 98/164/126 99/165/128
f 93/159/129 94/160/130 84/150/97
f 84/150/97 94/160/130 85/151/98
f 94/160/131 95/161/132 85/151/133
f 85/151/133 95/161/132 86/152/134
f 102/168/135 103/169/136 101/167/137
f 101/167/137 103/169/136 104/170/138
f 92/158/139 83/149/109 96/162/140
f 96/162/140 83/149/109 87/153/111
f 85/151/141 86/152/142 88/154/143
f 88/154/143 86/152/142 89/155/144
f 86/152/107 75/142/108 89/155/145
f 89/155/145 75/142/108 90/156/146
f 74/141/147 91/157/148 75/142/149
f 75/142/149 91/157/148 90/156/150
f 85/151/98 88/154/151 74/141/100
f 74/141/100 88/154/151 91/157/152
f 66/135/64 67/134/62 92/158/153
f 92/158/153 67/134/62 93/159/154
f 67/134/67 68/133/68 93/159/129
f 93/159/129 68/133/68 94/160/130
f 68/133/71 69/132/72 94/160/131
f 94/160/131 69/132/72 95/161/132
f 70/136/76 96/162/155 69/132/75
f 69/132/75 96/162/155 95/161/156
f 66/135/78 92/158/139 70/136/80
f 70/136/80 92/158/139 96/162/140
f 93/159/157 98/164/158 92/158/159
f 92/158/159 98/164/158 97/163/160
f 93/159/129 84/150/97 98/164/161
f 98/164/161 84/150/97 99/165/162
f 84/150/163 83/149/164 99/165/165
f 99/165/165 83/149/164 100/166/166
f 92/158/139 97/163/167 83/149/109
f 83/149/109 97/163/167 100/166/168
f 96/162/169 102/168/170 95/161/171
f 95/161/171 102/168/170 101/167/172
f 96/162/140 87/153/111 102/168/173
f 102/168/173 87/153/111 103/169/174
f 86/152/175 104/170/176 87/153/177
f 87/153/177 104/170/176 103/169/178
f 95/161/132 101/167/179 86/152/134
f 86/152/134 101/167/179 104/170/180
v 0.029415 2.240235 -0.550833
v 0.029415 2.715297 -0.550833
v 0.154240 2.477766 -1.545917
v 0.309346 2.629293 -1.209262
v 0.106561 2.093432 -1.165829
v -0.827775 2.477766 -0.030257
v -0.500358 2.093432 -0.229099
v -0.500358 2.862099 -0.229099
v -1.155576 2.240235 -1.318603
v -1.155576 2.715297 -1.318603
v -1.078387 2.711317 -0.450188
v -1.232722 2.093432 -0.703608
v -1.232722 2.862099 -0.703608
v -0.638028 2.535642 -1.545406
v -0.397988 3.038872 -1.531601
v -0.625803 2.093432 -1.640337
v -0.750629 1.855901 -0.645253
v -0.750629 3.099630 -0.645253
v -0.375532 3.099630 -1.224184
v -0.339798 1.997240 -1.340434
vt 0.099106 0.250000
vt 0.221609 0.250000
vt 0.259464 0.368034
vt 0.160357 0.440983
vt 0.061251 0.368034
vt 0.037855 0.440983
vt 0.198213 0.559017
vt 0.099106 0.631966
vt 0.000000 0.559017
vt 0.320715 0.559017
vt 0.358570 0.677051
vt 0.259464 0.750000
vt 0.160357 0.677051
vt 0.358570 0.440983
vt 0.481072 0.440983
vt 0.518928 0.559017
vt 0.419821 0.631966
vt 0.297319 0.250000
vt 0.419821 0.250000
vt 0.457677 0.368034
vt 0.740536 0.250000
vt 0.839643 0.322949
vt 0.801787 0.440983
vt 0.679285 0.440983
vt 0.641430 0.322949
vt 0.580179 0.368034
vt 0.641430 0.559017
vt 0.740536 0.631966
vt 0.702681 0.750000
vt 0.580179 0.750000
vt 0.542323 0.631966
vt 0.839643 0.559017
vt 0.938749 0.631966
vt 0.900894 0.750000
vt 0.778391 0.750000
vt 0.900894 0.368034
vt 1.000000 0.440983
vt 0.962145 0.559017
vn 0.531278 0.037624 -0.846362
vn 0.877598 0.478604 -0.027556
vn 0.595810 -0.802204 -0.038460
vn 0.713557 -0.527197 0.461410
vn 0.680309 0.523716 0.512739
vn 0.187671 -0.650181 0.736236
vn 0.314953 0.647344 0.694082
vn -0.315580 -0.107161 0.942828
vn -0.033883 -0.996693 0.073861
vn 0.164917 -0.949027 -0.268607
vn -0.719570 0.321803 0.615355
vn -0.801900 -0.577740 0.152225
vn -0.176102 -0.554104 -0.813607
vn -0.706146 -0.486445 -0.514519
vn -0.194937 0.130231 -0.972131
vn -0.000308 0.678377 -0.734714
vn 0.157326 0.984178 -0.081496
vn -0.172116 0.976809 0.127356
vn -0.848817 0.528510 0.013684
vn -0.776011 0.383723 -0.500562
usemtl phong2SG
f 107/179/181 108/176/182 109/178/183
f 109/178/183 108/176/182 105/177/184
f 105/177/184 108/176/182 106/174/185
f 105/177/184 106/174/185 111/180/186
f 106/174/185 112/173/187 111/180/186
f 112/173/187 110/184/188 111/180/186
f 111/180/186 121/181/189 105/177/184
f 121/181/189 124/182/190 105/177/184
f 105/177/184 124/182/190 109/183/183
f 115/185/191 116/186/192 110/184/188
f 110/184/188 116/186/192 111/180/186
f 116/186/192 121/187/189 111/180/186
f 120/198/193 124/199/190 113/197/194
f 124/199/190 121/200/189 113/197/194
f 121/200/189 116/201/192 113/197/194
f 118/202/195 107/203/181 120/198/193
f 120/198/193 107/203/181 124/205/190
f 109/204/183 124/205/190 107/203/181
f 118/202/195 119/193/196 107/208/181
f 108/207/182 107/208/181 123/206/197
f 107/208/181 119/193/196 123/206/197
f 122/172/198 112/173/187 123/171/197
f 112/173/187 106/174/185 123/171/197
f 106/174/185 108/175/182 123/171/197
f 112/173/187 122/188/198 110/184/188
f 110/184/188 122/188/198 115/190/191
f 122/188/198 117/189/199 115/190/191
f 115/185/191 117/196/199 116/186/192
f 117/196/199 114/194/200 116/186/192
f 113/197/194 116/186/192 114/194/200
f 117/195/199 122/191/198 114/194/200
f 122/191/198 123/192/197 114/194/200
f 114/194/200 123/192/197 119/193/196
f 119/193/196 118/202/195 114/194/200
f 114/194/200 118/202/195 113/197/194
f 118/202/195 120/198/193 113/197/194
