# This file uses centimeters as units for non-parametric coordinates.

mtllib bush.mtl
v 0.934172 0.062115 -0.000000
v 0.934172 0.627807 0.000000
v 0.378601 0.344961 -0.848299
v 0.577350 0.802615 -0.417778
v 0.577350 -0.112694 -0.417778
v 0.519155 0.344961 0.852644
v 0.577350 -0.112694 0.417778
v 0.577350 0.802615 0.417778
v -0.934172 0.062115 -0.000000
v -1.054350 0.627807 0.365753
v -0.356822 0.344961 0.675979
v -0.577350 -0.112694 0.417778
v -0.532012 0.802615 0.763792
v -0.356822 0.344961 -0.675979
v -0.577350 0.802615 -0.417778
v -0.577350 -0.112694 -0.417778
v 0.000000 -0.395540 0.258201
v 0.000000 0.844561 0.258201
v 0.000000 1.085462 -0.258201
v 0.000000 -0.395540 -0.258201
vt 0.099106 0.250000
vt 0.221609 0.250000
vt 0.259464 0.368034
vt 0.160357 0.440983
vt 0.061251 0.368034
vt 0.037855 0.440983
vt 0.198213 0.559017
vt 0.099106 0.631966
vt 0.000000 0.559017
vt 0.320715 0.559017
vt 0.358570 0.677051
vt 0.259464 0.750000
vt 0.160357 0.677051
vt 0.358570 0.440983
vt 0.481072 0.440983
vt 0.518928 0.559017
vt 0.419821 0.631966
vt 0.297319 0.250000
vt 0.419821 0.250000
vt 0.457677 0.368034
vt 0.740536 0.250000
vt 0.839643 0.322949
vt 0.801787 0.440983
vt 0.679285 0.440983
vt 0.641430 0.322949
vt 0.580179 0.368034
vt 0.641430 0.559017
vt 0.740536 0.631966
vt 0.702681 0.750000
vt 0.580179 0.750000
vt 0.542323 0.631966
vt 0.839643 0.559017
vt 0.938749 0.631966
vt 0.900894 0.750000
vt 0.778391 0.750000
vt 0.900894 0.368034
vt 1.000000 0.440983
vt 0.962145 0.559017
vn 0.397361 -0.727929 -0.558770
vn 0.225757 -0.000000 -0.974184
vn 0.936013 -0.347197 -0.057745
vn 0.936013 0.347197 -0.057745
vn 0.397361 0.727929 -0.558770
vn 0.361672 0.782332 0.507099
vn 0.220587 -0.025444 0.975035
vn 0.344485 -0.725014 0.596393
vn 0.000000 -0.952906 -0.303264
vn -0.055510 -0.903312 0.425378
vn -0.471337 -0.594612 0.651366
vn -0.187856 -0.139476 0.972243
vn -0.915927 -0.356839 -0.183696
vn -0.429521 -0.628100 -0.648846
vn -0.479462 0.016085 -0.877415
vn -0.010994 0.981577 -0.190752
vn -0.532016 0.675181 -0.510970
vn -0.128376 0.908431 0.397834
vn -0.087795 0.698570 0.710135
vn -0.832626 0.504628 0.228222
usemtl initialShadingGroup
f 5/8/1 3/9/2 1/7/3
f 1/7/3 3/9/2 2/4/4
f 3/9/2 4/6/5 2/4/4
f 8/3/6 6/14/7 2/4/4
f 2/4/4 6/14/7 1/7/3
f 6/14/7 7/10/8 1/7/3
f 1/7/3 7/10/8 5/13/1
f 5/13/1 7/10/8 20/12/9
f 7/10/8 17/11/10 20/12/9
f 12/16/11 17/17/10 11/15/12
f 17/17/10 7/10/8 11/15/12
f 6/14/7 11/15/12 7/10/8
f 12/31/11 9/27/13 17/30/10
f 17/30/10 9/27/13 20/29/9
f 9/27/13 16/28/14 20/29/9
f 20/35/9 16/28/14 5/34/1
f 5/34/1 16/28/14 3/33/2
f 16/28/14 14/32/15 3/33/2
f 19/36/16 4/37/5 15/23/17
f 4/37/5 3/38/2 15/23/17
f 3/38/2 14/32/15 15/23/17
f 18/2/18 8/3/6 19/1/16
f 19/1/16 8/3/6 4/5/5
f 2/4/4 4/5/5 8/3/6
f 8/3/6 18/18/18 6/14/7
f 6/14/7 18/18/18 11/20/12
f 18/18/18 13/19/19 11/20/12
f 12/16/11 11/15/12 9/27/13
f 9/27/13 11/15/12 10/24/20
f 11/15/12 13/26/19 10/24/20
f 19/22/16 15/23/17 18/21/18
f 15/23/17 10/24/20 18/21/18
f 10/24/20 13/25/19 18/21/18
f 16/28/14 9/27/13 14/32/15
f 9/27/13 10/24/20 14/32/15
f 10/24/20 15/23/17 14/32/15
v 0.934172 0.062115 -0.000000
v 0.934172 0.627807 0.000000
v 0.378601 0.344961 -0.848299
v 0.577350 0.802615 -0.417778
v 0.577350 -0.112694 -0.417778
v 0.519155 0.344961 0.852644
v 0.577350 -0.112694 0.417778
v 0.577350 0.802615 0.417778
v -0.934172 0.062115 -0.000000
v -1.054350 0.627807 0.365753
v -0.356822 0.344961 0.675979
v -0.577350 -0.112694 0.417778
v -0.532012 0.802615 0.763792
v -0.356822 0.344961 -0.675979
v -0.577350 0.802615 -0.417778
v -0.577350 -0.112694 -0.417778
v 0.000000 -0.395540 0.258201
v 0.000000 0.844561 0.258201
v 0.000000 1.085462 -0.258201
v 0.000000 -0.395540 -0.258201
vt 0.099106 0.250000
vt 0.221609 0.250000
vt 0.259464 0.368034
vt 0.160357 0.440983
vt 0.061251 0.368034
vt 0.037855 0.440983
vt 0.198213 0.559017
vt 0.099106 0.631966
vt 0.000000 0.559017
vt 0.320715 0.559017
vt 0.358570 0.677051
vt 0.259464 0.750000
vt 0.160357 0.677051
vt 0.358570 0.440983
vt 0.481072 0.440983
vt 0.518928 0.559017
vt 0.419821 0.631966
vt 0.297319 0.250000
vt 0.419821 0.250000
vt 0.457677 0.368034
vt 0.740536 0.250000
vt 0.839643 0.322949
vt 0.801787 0.440983
vt 0.679285 0.440983
vt 0.641430 0.322949
vt 0.580179 0.368034
vt 0.641430 0.559017
vt 0.740536 0.631966
vt 0.702681 0.750000
vt 0.580179 0.750000
vt 0.542323 0.631966
vt 0.839643 0.559017
vt 0.938749 0.631966
vt 0.900894 0.750000
vt 0.778391 0.750000
vt 0.900894 0.368034
vt 1.000000 0.440983
vt 0.962145 0.559017
vn 0.397361 -0.727929 -0.558770
vn 0.225757 -0.000000 -0.974184
vn 0.936013 -0.347197 -0.057745
vn 0.936013 0.347197 -0.057745
vn 0.397361 0.727929 -0.558770
vn 0.361672 0.782332 0.507099
vn 0.220587 -0.025444 0.975035
vn 0.344485 -0.725014 0.596393
vn 0.000000 -0.952906 -0.303264
vn -0.055510 -0.903312 0.425378
vn -0.471337 -0.594612 0.651366
vn -0.187856 -0.139476 0.972243
vn -0.915927 -0.356839 -0.183696
vn -0.429521 -0.628100 -0.648846
vn -0.479462 0.016085 -0.877415
vn -0.010994 0.981577 -0.190752
vn -0.532016 0.675181 -0.510970
vn -0.128376 0.908431 0.397834
vn -0.087795 0.698570 0.710135
vn -0.832626 0.504628 0.228222
f 25/46/21 23/47/22 21/45/23
f 21/45/23 23/47/22 22/42/24
f 23/47/22 24/44/25 22/42/24
f 28/41/26 26/52/27 22/42/24
f 22/42/24 26/52/27 21/45/23
f 26/52/27 27/48/28 21/45/23
f 21/45/23 27/48/28 25/51/21
f 25/51/21 27/48/28 40/50/29
f 27/48/28 37/49/30 40/50/29
f 32/54/31 37/55/30 31/53/32
f 37/55/30 27/48/28 31/53/32
f 26/52/27 31/53/32 27/48/28
f 32/69/31 29/65/33 37/68/30
f 37/68/30 29/65/33 40/67/29
f 29/65/33 36/66/34 40/67/29
f 40/73/29 36/66/34 25/72/21
f 25/72/21 36/66/34 23/71/22
f 36/66/34 34/70/35 23/71/22
f 39/74/36 24/75/25 35/61/37
f 24/75/25 23/76/22 35/61/37
f 23/76/22 34/70/35 35/61/37
f 38/40/38 28/41/26 39/39/36
f 39/39/36 28/41/26 24/43/25
f 22/42/24 24/43/25 28/41/26
f 28/41/26 38/56/38 26/52/27
f 26/52/27 38/56/38 31/58/32
f 38/56/38 33/57/39 31/58/32
f 32/54/31 31/53/32 29/65/33
f 29/65/33 31/53/32 30/62/40
f 31/53/32 33/64/39 30/62/40
f 39/60/36 35/61/37 38/59/38
f 35/61/37 30/62/40 38/59/38
f 30/62/40 33/63/39 38/59/38
f 36/66/34 29/65/33 34/70/35
f 29/65/33 30/62/40 34/70/35
f 30/62/40 35/61/37 34/70/35
